<svg xmlns="http://www.w3.org/2000/svg" viewBox="0 0 512 512">
    <defs>
      <linearGradient id="grad1" x1="0%" y1="0%" x2="100%" y2="100%">
        <stop offset="0%" style="stop-color:#2563eb;stop-opacity:1" />
        <stop offset="100%" style="stop-color:#4f46e5;stop-opacity:1" />
      </linearGradient>
    </defs>
    <rect width="512" height="512" rx="80" fill="url(#grad1)"/>
    <circle cx="256" cy="180" r="60" fill="white" opacity="0.9"/>
    <path d="M180 280 L332 280 C340 280 346 286 346 294 L346 380 C346 388 340 394 332 394 L180 394 C172 394 166 388 166 380 L166 294 C166 286 172 280 180 280 Z" fill="white" opacity="0.9"/>
    <circle cx="200" cy="320" r="12" fill="#2563eb"/>
    <circle cx="256" cy="320" r="12" fill="#2563eb"/>
    <circle cx="312" cy="320" r="12" fill="#2563eb"/>
    <path d="M200 350 L312 350 M220 370 L292 370" stroke="#2563eb" stroke-width="4" stroke-linecap="round"/>
  </svg>